<?xml version="1.0" encoding="UTF-8"?>
<svg width="200" height="40" viewBox="0 0 200 40" xmlns="http://www.w3.org/2000/svg">
  <style>
    @import url('https://fonts.googleapis.com/css2?family=Fauna+One&amp;display=swap');
    .logo-text {
      font-family: 'Fauna One', serif;
      font-size: 24px;
      font-weight: 800;
      letter-spacing: -0.03em;
      fill: #0071ce;
    }
  </style>
  <g>
    <!-- Snow Icon -->
    <path d="m 16 8 l -2 -1.16 a 5.3 5.3 0 0 1 1.24 -0.95 a 1.3 1.3 0 0 0 -1.26 -2.28 a 7.9 7.9 0 0 0 -2.28 1.9 L 10 4 l 5.21 -3.01 a 7.9 7.9 0 0 0 2.28 1.9 a 1.3 1.3 0 1 0 1.26 -2.28 a 5.3 5.3 0 0 1 -1.24 -0.95 l 2 -1.16 A 1.3 1.3 0 1 0 19 0.5 l -2 1.16 a 5.3 5.3 0 0 1 -0.2 -1.55 A 1.3 1.3 0 0 0 15.5 0 h -0.02 a 1.3 1.3 0 0 0 -1.3 1.28 a 7.9 7.9 0 0 0 0.5 2.92 L 9 4.5 V 1.5 a 7.9 7.9 0 0 0 2.79 -1.03 a 1.3 1.3 0 0 0 -1.35 -2.23 A 5.3 5.3 0 0 1 9 1.5 V 0 a 1.3 1.3 0 0 0 -2.6 0 v 1.5 a 5.3 5.3 0 0 1 -1.44 -0.6 a 1.3 1.3 0 1 0 -1.35 2.23 A 7.9 7.9 0 0 0 6 1.5 v 3 L 1.91 4.5 a 7.9 7.9 0 0 0 0.5 -2.92 A 1.3 1.3 0 0 0 1.12 0 H 1.1 a 1.3 1.3 0 0 0 -1.28 1.33 a 5.3 5.3 0 0 1 -0.2 1.55 L -2.38 0.5 a 1.3 1.3 0 1 0 -1.3 2.25 l 2 1.16 a 5.3 5.3 0 0 1 -1.24 0.95 a 1.3 1.3 0 1 0 1.26 2.28 a 7.9 7.9 0 0 0 2.28 -1.9 L 2 4 l 5.21 3.01 a 7.9 7.9 0 0 0 -2.28 1.9 a 1.3 1.3 0 1 0 1.26 2.28 a 5.3 5.3 0 0 1 1.24 -0.95 L 5 8 a 1.3 1.3 0 1 0 1.3 2.25 l 2 -1.16 a 5.3 5.3 0 0 1 0.2 1.55 A 1.3 1.3 0 0 0 10 12.5 h 0.02 a 1.3 1.3 0 0 0 1.3 -1.28 a 7.9 7.9 0 0 0 -0.5 -2.92 L 16 8.5 v 3 a 7.9 7.9 0 0 0 -2.79 1.03 a 1.3 1.3 0 0 0 1.35 2.23 A 5.3 5.3 0 0 1 16 12.5 V 16 a 1.3 1.3 0 0 0 2.6 0 v -3.5 a 5.3 5.3 0 0 1 1.44 0.6 a 1.3 1.3 0 0 0 1.35 -2.23 A 7.9 7.9 0 0 0 18 11.5 V 8.5 L 23.09 10 a 7.9 7.9 0 0 0 -0.5 2.92 a 1.3 1.3 0 0 0 1.3 1.28 h 0.02 a 1.3 1.3 0 0 0 1.28 -1.33 a 5.3 5.3 0 0 1 0.2 -1.55 l 2 1.16 A 1.3 1.3 0 1 0 29 8 Z" fill="#0071ce"/>
    <!-- SOOKCHAIN Text -->
    <text x="40" y="28" class="logo-text">SOOKCHAIN</text>
  </g>
</svg> 